<svg width="164" height="52" viewBox="0 0 164 52" fill="none" xmlns="http://www.w3.org/2000/svg">
<g clip-path="url(#clip0_11_4)">
<path d="M15 28.3333L21.087 33L35 13" stroke="#89DC8C" stroke-width="5" stroke-linecap="round"/>
<path d="M35.7 36V33.52L43.94 23.74L44.42 25.14H35.88V22H47.94V24.48L39.7 34.26L39.22 32.86H48.24V36H35.7ZM55.1756 36.18C53.989 36.18 52.9356 35.94 52.0156 35.46C51.0956 34.98 50.369 34.32 49.8356 33.48C49.3156 32.6267 49.0556 31.6533 49.0556 30.56C49.0556 29.4667 49.3156 28.5 49.8356 27.66C50.369 26.82 51.0956 26.1667 52.0156 25.7C52.9356 25.22 53.989 24.98 55.1756 24.98C56.3623 24.98 57.4156 25.22 58.3356 25.7C59.269 26.1667 59.9956 26.82 60.5156 27.66C61.0356 28.5 61.2956 29.4667 61.2956 30.56C61.2956 31.6533 61.0356 32.6267 60.5156 33.48C59.9956 34.32 59.269 34.98 58.3356 35.46C57.4156 35.94 56.3623 36.18 55.1756 36.18ZM55.1756 33.16C55.6156 33.16 56.0023 33.06 56.3356 32.86C56.6823 32.66 56.9556 32.3667 57.1556 31.98C57.3556 31.58 57.4556 31.1067 57.4556 30.56C57.4556 30.0133 57.3556 29.5533 57.1556 29.18C56.9556 28.7933 56.6823 28.5 56.3356 28.3C56.0023 28.1 55.6156 28 55.1756 28C54.749 28 54.3623 28.1 54.0156 28.3C53.6823 28.5 53.409 28.7933 53.1956 29.18C52.9956 29.5533 52.8956 30.0133 52.8956 30.56C52.8956 31.1067 52.9956 31.58 53.1956 31.98C53.409 32.3667 53.6823 32.66 54.0156 32.86C54.3623 33.06 54.749 33.16 55.1756 33.16ZM68.7359 36.18C67.4559 36.18 66.3359 35.94 65.3759 35.46C64.4293 34.9667 63.6893 34.3 63.1559 33.46C62.6359 32.6067 62.3759 31.64 62.3759 30.56C62.3759 29.48 62.6293 28.52 63.1359 27.68C63.6559 26.8267 64.3693 26.1667 65.2759 25.7C66.1826 25.22 67.2026 24.98 68.3359 24.98C69.4026 24.98 70.3759 25.2 71.2559 25.64C72.1359 26.0667 72.8359 26.7 73.3559 27.54C73.8759 28.38 74.1359 29.4 74.1359 30.6C74.1359 30.7333 74.1293 30.8867 74.1159 31.06C74.1026 31.2333 74.0893 31.3933 74.0759 31.54H65.4959V29.54H72.0559L70.6159 30.1C70.6293 29.6067 70.5359 29.18 70.3359 28.82C70.1493 28.46 69.8826 28.18 69.5359 27.98C69.2026 27.78 68.8093 27.68 68.3559 27.68C67.9026 27.68 67.5026 27.78 67.1559 27.98C66.8226 28.18 66.5626 28.4667 66.3759 28.84C66.1893 29.2 66.0959 29.6267 66.0959 30.12V30.7C66.0959 31.2333 66.2026 31.6933 66.4159 32.08C66.6426 32.4667 66.9626 32.7667 67.3759 32.98C67.7893 33.18 68.2826 33.28 68.8559 33.28C69.3893 33.28 69.8426 33.2067 70.2159 33.06C70.6026 32.9 70.9826 32.66 71.3559 32.34L73.3559 34.42C72.8359 34.9933 72.1959 35.4333 71.4359 35.74C70.6759 36.0333 69.7759 36.18 68.7359 36.18ZM75.5461 28.44L77.0461 23.24L77.5861 25.4C76.9194 25.4 76.3728 25.2067 75.9461 24.82C75.5194 24.42 75.3061 23.8867 75.3061 23.22C75.3061 22.54 75.5194 22 75.9461 21.6C76.3861 21.1867 76.9328 20.98 77.5861 20.98C78.2394 20.98 78.7794 21.1867 79.2061 21.6C79.6328 22 79.8461 22.54 79.8461 23.22C79.8461 23.4067 79.8328 23.6 79.8061 23.8C79.7794 23.9867 79.7194 24.2133 79.6261 24.48C79.5461 24.7333 79.4061 25.08 79.2061 25.52L77.9261 28.44H75.5461ZM85.1991 36.18C84.2791 36.18 83.3791 36.0733 82.4991 35.86C81.6324 35.6467 80.9324 35.38 80.3991 35.06L81.5391 32.46C82.0457 32.7667 82.6391 33.0133 83.3191 33.2C83.9991 33.3733 84.6657 33.46 85.3191 33.46C85.9591 33.46 86.3991 33.3933 86.6391 33.26C86.8924 33.1267 87.0191 32.9467 87.0191 32.72C87.0191 32.5067 86.8991 32.3533 86.6591 32.26C86.4324 32.1533 86.1257 32.0733 85.7391 32.02C85.3657 31.9667 84.9524 31.9067 84.4991 31.84C84.0457 31.7733 83.5857 31.6867 83.1191 31.58C82.6657 31.46 82.2457 31.2867 81.8591 31.06C81.4857 30.82 81.1857 30.5 80.9591 30.1C80.7324 29.7 80.6191 29.1933 80.6191 28.58C80.6191 27.8867 80.8191 27.2733 81.2191 26.74C81.6324 26.1933 82.2324 25.7667 83.0191 25.46C83.8057 25.14 84.7657 24.98 85.8991 24.98C86.6591 24.98 87.4257 25.06 88.1991 25.22C88.9857 25.3667 89.6457 25.5933 90.1791 25.9L89.0391 28.48C88.5057 28.1733 87.9724 27.9667 87.4391 27.86C86.9057 27.74 86.3991 27.68 85.9191 27.68C85.2791 27.68 84.8257 27.7533 84.5591 27.9C84.3057 28.0467 84.1791 28.2267 84.1791 28.44C84.1791 28.6533 84.2924 28.82 84.5191 28.94C84.7457 29.0467 85.0457 29.1333 85.4191 29.2C85.8057 29.2533 86.2257 29.3133 86.6791 29.38C87.1324 29.4333 87.5857 29.52 88.0391 29.64C88.5057 29.76 88.9257 29.94 89.2991 30.18C89.6857 30.4067 89.9924 30.72 90.2191 31.12C90.4457 31.5067 90.5591 32.0067 90.5591 32.62C90.5591 33.2867 90.3524 33.8867 89.9391 34.42C89.5391 34.9533 88.9391 35.38 88.1391 35.7C87.3524 36.02 86.3724 36.18 85.1991 36.18ZM102.857 36.18C101.47 36.18 100.39 35.84 99.6169 35.16C98.8435 34.4667 98.4569 33.4267 98.4569 32.04V22.74H102.257V32C102.257 32.3867 102.364 32.6933 102.577 32.92C102.79 33.1333 103.064 33.24 103.397 33.24C103.85 33.24 104.237 33.1267 104.557 32.9L105.497 35.56C105.177 35.7733 104.784 35.9267 104.317 36.02C103.85 36.1267 103.364 36.18 102.857 36.18ZM96.8769 28.4V25.56H104.737V28.4H96.8769ZM113.582 36V33.98L113.322 33.48V29.76C113.322 29.16 113.136 28.7 112.762 28.38C112.402 28.0467 111.822 27.88 111.022 27.88C110.502 27.88 109.976 27.9667 109.442 28.14C108.909 28.3 108.456 28.5267 108.082 28.82L106.802 26.24C107.416 25.84 108.149 25.5333 109.002 25.32C109.869 25.0933 110.729 24.98 111.582 24.98C113.342 24.98 114.702 25.3867 115.662 26.2C116.636 27 117.122 28.26 117.122 29.98V36H113.582ZM110.382 36.18C109.516 36.18 108.782 36.0333 108.182 35.74C107.582 35.4467 107.122 35.0467 106.802 34.54C106.496 34.0333 106.342 33.4667 106.342 32.84C106.342 32.1733 106.509 31.6 106.842 31.12C107.189 30.6267 107.716 30.2533 108.422 30C109.129 29.7333 110.042 29.6 111.162 29.6H113.722V31.58H111.682C111.069 31.58 110.636 31.68 110.382 31.88C110.142 32.08 110.022 32.3467 110.022 32.68C110.022 33.0133 110.149 33.28 110.402 33.48C110.656 33.68 111.002 33.78 111.442 33.78C111.856 33.78 112.229 33.68 112.562 33.48C112.909 33.2667 113.162 32.9467 113.322 32.52L113.842 33.92C113.642 34.6667 113.249 35.2333 112.662 35.62C112.089 35.9933 111.329 36.18 110.382 36.18ZM123.461 36.18C122.541 36.18 121.641 36.0733 120.761 35.86C119.894 35.6467 119.194 35.38 118.661 35.06L119.801 32.46C120.307 32.7667 120.901 33.0133 121.581 33.2C122.261 33.3733 122.927 33.46 123.581 33.46C124.221 33.46 124.661 33.3933 124.901 33.26C125.154 33.1267 125.281 32.9467 125.281 32.72C125.281 32.5067 125.161 32.3533 124.921 32.26C124.694 32.1533 124.387 32.0733 124.001 32.02C123.627 31.9667 123.214 31.9067 122.761 31.84C122.307 31.7733 121.847 31.6867 121.381 31.58C120.927 31.46 120.507 31.2867 120.121 31.06C119.747 30.82 119.447 30.5 119.221 30.1C118.994 29.7 118.881 29.1933 118.881 28.58C118.881 27.8867 119.081 27.2733 119.481 26.74C119.894 26.1933 120.494 25.7667 121.281 25.46C122.067 25.14 123.027 24.98 124.161 24.98C124.921 24.98 125.687 25.06 126.461 25.22C127.247 25.3667 127.907 25.5933 128.441 25.9L127.301 28.48C126.767 28.1733 126.234 27.9667 125.701 27.86C125.167 27.74 124.661 27.68 124.181 27.68C123.541 27.68 123.087 27.7533 122.821 27.9C122.567 28.0467 122.441 28.2267 122.441 28.44C122.441 28.6533 122.554 28.82 122.781 28.94C123.007 29.0467 123.307 29.1333 123.681 29.2C124.067 29.2533 124.487 29.3133 124.941 29.38C125.394 29.4333 125.847 29.52 126.301 29.64C126.767 29.76 127.187 29.94 127.561 30.18C127.947 30.4067 128.254 30.72 128.481 31.12C128.707 31.5067 128.821 32.0067 128.821 32.62C128.821 33.2867 128.614 33.8867 128.201 34.42C127.801 34.9533 127.201 35.38 126.401 35.7C125.614 36.02 124.634 36.18 123.461 36.18ZM133.618 34L133.718 29.46L138.138 25.16H142.638L137.738 30.22L135.798 31.78L133.618 34ZM130.458 36V21.16H134.258V36H130.458ZM138.418 36L135.098 31.84L137.458 28.92L143.018 36H138.418ZM147.738 36.18C146.818 36.18 145.918 36.0733 145.038 35.86C144.171 35.6467 143.471 35.38 142.938 35.06L144.078 32.46C144.585 32.7667 145.178 33.0133 145.858 33.2C146.538 33.3733 147.205 33.46 147.858 33.46C148.498 33.46 148.938 33.3933 149.178 33.26C149.431 33.1267 149.558 32.9467 149.558 32.72C149.558 32.5067 149.438 32.3533 149.198 32.26C148.971 32.1533 148.665 32.0733 148.278 32.02C147.905 31.9667 147.491 31.9067 147.038 31.84C146.585 31.7733 146.125 31.6867 145.658 31.58C145.205 31.46 144.785 31.2867 144.398 31.06C144.025 30.82 143.725 30.5 143.498 30.1C143.271 29.7 143.158 29.1933 143.158 28.58C143.158 27.8867 143.358 27.2733 143.758 26.74C144.171 26.1933 144.771 25.7667 145.558 25.46C146.345 25.14 147.305 24.98 148.438 24.98C149.198 24.98 149.965 25.06 150.738 25.22C151.525 25.3667 152.185 25.5933 152.718 25.9L151.578 28.48C151.045 28.1733 150.511 27.9667 149.978 27.86C149.445 27.74 148.938 27.68 148.458 27.68C147.818 27.68 147.365 27.7533 147.098 27.9C146.845 28.0467 146.718 28.2267 146.718 28.44C146.718 28.6533 146.831 28.82 147.058 28.94C147.285 29.0467 147.585 29.1333 147.958 29.2C148.345 29.2533 148.765 29.3133 149.218 29.38C149.671 29.4333 150.125 29.52 150.578 29.64C151.045 29.76 151.465 29.94 151.838 30.18C152.225 30.4067 152.531 30.72 152.758 31.12C152.985 31.5067 153.098 32.0067 153.098 32.62C153.098 33.2867 152.891 33.8867 152.478 34.42C152.078 34.9533 151.478 35.38 150.678 35.7C149.891 36.02 148.911 36.18 147.738 36.18Z" fill="black"/>
</g>
<defs>
<clipPath id="clip0_11_4">
<rect width="164" height="52" fill="white"/>
</clipPath>
</defs>
</svg>
