<svg width="113" height="52" viewBox="0 0 113 52" fill="none" xmlns="http://www.w3.org/2000/svg">
<g clip-path="url(#clip0_11_4)">
<path d="M15 28.3333L21.087 33L35 13" stroke="#89DC8C" stroke-width="5" stroke-linecap="round"/>
<path d="M40.06 36.18C38.6733 36.18 37.5933 35.84 36.82 35.16C36.0467 34.4667 35.66 33.4267 35.66 32.04V22.74H39.46V32C39.46 32.3867 39.5667 32.6933 39.78 32.92C39.9933 33.1333 40.2667 33.24 40.6 33.24C41.0533 33.24 41.44 33.1267 41.76 32.9L42.7 35.56C42.38 35.7733 41.9867 35.9267 41.52 36.02C41.0533 36.1267 40.5667 36.18 40.06 36.18ZM34.08 28.4V25.56H41.94V28.4H34.08ZM50.7853 36V33.98L50.5253 33.48V29.76C50.5253 29.16 50.3386 28.7 49.9653 28.38C49.6053 28.0467 49.0253 27.88 48.2253 27.88C47.7053 27.88 47.1786 27.9667 46.6453 28.14C46.112 28.3 45.6586 28.5267 45.2853 28.82L44.0053 26.24C44.6186 25.84 45.352 25.5333 46.2053 25.32C47.072 25.0933 47.932 24.98 48.7853 24.98C50.5453 24.98 51.9053 25.3867 52.8653 26.2C53.8386 27 54.3253 28.26 54.3253 29.98V36H50.7853ZM47.5853 36.18C46.7186 36.18 45.9853 36.0333 45.3853 35.74C44.7853 35.4467 44.3253 35.0467 44.0053 34.54C43.6986 34.0333 43.5453 33.4667 43.5453 32.84C43.5453 32.1733 43.712 31.6 44.0453 31.12C44.392 30.6267 44.9186 30.2533 45.6253 30C46.332 29.7333 47.2453 29.6 48.3653 29.6H50.9253V31.58H48.8853C48.272 31.58 47.8386 31.68 47.5853 31.88C47.3453 32.08 47.2253 32.3467 47.2253 32.68C47.2253 33.0133 47.352 33.28 47.6053 33.48C47.8586 33.68 48.2053 33.78 48.6453 33.78C49.0586 33.78 49.432 33.68 49.7653 33.48C50.112 33.2667 50.3653 32.9467 50.5253 32.52L51.0453 33.92C50.8453 34.6667 50.452 35.2333 49.8653 35.62C49.292 35.9933 48.532 36.18 47.5853 36.18ZM60.6639 36.18C59.7439 36.18 58.8439 36.0733 57.9639 35.86C57.0972 35.6467 56.3972 35.38 55.8639 35.06L57.0039 32.46C57.5106 32.7667 58.1039 33.0133 58.7839 33.2C59.4639 33.3733 60.1306 33.46 60.7839 33.46C61.4239 33.46 61.8639 33.3933 62.1039 33.26C62.3572 33.1267 62.4839 32.9467 62.4839 32.72C62.4839 32.5067 62.3639 32.3533 62.1239 32.26C61.8972 32.1533 61.5906 32.0733 61.2039 32.02C60.8306 31.9667 60.4172 31.9067 59.9639 31.84C59.5106 31.7733 59.0506 31.6867 58.5839 31.58C58.1306 31.46 57.7106 31.2867 57.3239 31.06C56.9506 30.82 56.6506 30.5 56.4239 30.1C56.1972 29.7 56.0839 29.1933 56.0839 28.58C56.0839 27.8867 56.2839 27.2733 56.6839 26.74C57.0972 26.1933 57.6972 25.7667 58.4839 25.46C59.2706 25.14 60.2306 24.98 61.3639 24.98C62.1239 24.98 62.8906 25.06 63.6639 25.22C64.4506 25.3667 65.1106 25.5933 65.6439 25.9L64.5039 28.48C63.9706 28.1733 63.4372 27.9667 62.9039 27.86C62.3706 27.74 61.8639 27.68 61.3839 27.68C60.7439 27.68 60.2906 27.7533 60.0239 27.9C59.7706 28.0467 59.6439 28.2267 59.6439 28.44C59.6439 28.6533 59.7572 28.82 59.9839 28.94C60.2106 29.0467 60.5106 29.1333 60.8839 29.2C61.2706 29.2533 61.6906 29.3133 62.1439 29.38C62.5972 29.4333 63.0506 29.52 63.5039 29.64C63.9706 29.76 64.3906 29.94 64.7639 30.18C65.1506 30.4067 65.4572 30.72 65.6839 31.12C65.9106 31.5067 66.0239 32.0067 66.0239 32.62C66.0239 33.2867 65.8172 33.8867 65.4039 34.42C65.0039 34.9533 64.4039 35.38 63.6039 35.7C62.8172 36.02 61.8372 36.18 60.6639 36.18ZM70.8214 34L70.9214 29.46L75.3414 25.16H79.8414L74.9414 30.22L73.0014 31.78L70.8214 34ZM67.6614 36V21.16H71.4614V36H67.6614ZM75.6214 36L72.3014 31.84L74.6614 28.92L80.2214 36H75.6214ZM84.9413 36.18C84.0213 36.18 83.1213 36.0733 82.2413 35.86C81.3746 35.6467 80.6746 35.38 80.1413 35.06L81.2813 32.46C81.7879 32.7667 82.3813 33.0133 83.0613 33.2C83.7413 33.3733 84.4079 33.46 85.0612 33.46C85.7013 33.46 86.1413 33.3933 86.3813 33.26C86.6346 33.1267 86.7613 32.9467 86.7613 32.72C86.7613 32.5067 86.6413 32.3533 86.4013 32.26C86.1746 32.1533 85.8679 32.0733 85.4813 32.02C85.1079 31.9667 84.6946 31.9067 84.2413 31.84C83.7879 31.7733 83.3279 31.6867 82.8613 31.58C82.4079 31.46 81.9879 31.2867 81.6013 31.06C81.2279 30.82 80.9279 30.5 80.7013 30.1C80.4746 29.7 80.3613 29.1933 80.3613 28.58C80.3613 27.8867 80.5613 27.2733 80.9613 26.74C81.3746 26.1933 81.9746 25.7667 82.7613 25.46C83.5479 25.14 84.5079 24.98 85.6413 24.98C86.4013 24.98 87.1679 25.06 87.9413 25.22C88.7279 25.3667 89.3879 25.5933 89.9213 25.9L88.7813 28.48C88.2479 28.1733 87.7146 27.9667 87.1813 27.86C86.6479 27.74 86.1413 27.68 85.6612 27.68C85.0213 27.68 84.5679 27.7533 84.3013 27.9C84.0479 28.0467 83.9213 28.2267 83.9213 28.44C83.9213 28.6533 84.0346 28.82 84.2613 28.94C84.4879 29.0467 84.7879 29.1333 85.1613 29.2C85.5479 29.2533 85.9679 29.3133 86.4213 29.38C86.8746 29.4333 87.3279 29.52 87.7813 29.64C88.2479 29.76 88.6679 29.94 89.0413 30.18C89.4279 30.4067 89.7346 30.72 89.9613 31.12C90.1879 31.5067 90.3013 32.0067 90.3013 32.62C90.3013 33.2867 90.0946 33.8867 89.6813 34.42C89.2813 34.9533 88.6813 35.38 87.8813 35.7C87.0946 36.02 86.1146 36.18 84.9413 36.18Z" fill="black"/>
</g>
<defs>
<clipPath id="clip0_11_4">
<rect width="113" height="52" fill="white"/>
</clipPath>
</defs>
</svg>
